<?xml version="1.0" encoding="UTF-8" standalone="no"?>
<!-- Generator: Adobe Illustrator 21.0.0, SVG Export Plug-In . SVG Version: 6.00 Build 0)  -->

<svg
   xmlns:dc="http://purl.org/dc/elements/1.1/"
   xmlns:cc="http://creativecommons.org/ns#"
   xmlns:rdf="http://www.w3.org/1999/02/22-rdf-syntax-ns#"
   xmlns:svg="http://www.w3.org/2000/svg"
   xmlns="http://www.w3.org/2000/svg"
   xmlns:sodipodi="http://sodipodi.sourceforge.net/DTD/sodipodi-0.dtd"
   xmlns:inkscape="http://www.inkscape.org/namespaces/inkscape"
   version="1.1"
   id="Layer_1"
   x="0px"
   y="0px"
   width="68px"
   height="68px"
   viewBox="0 0 68 68"
   style="enable-background:new 0 0 68 68;"
   xml:space="preserve"
   sodipodi:docname="gecko-eye_0.svg"
   inkscape:version="0.92.4 (5da689c313, 2019-01-14)"><metadata
   id="metadata3799"><rdf:RDF><cc:Work
       rdf:about=""><dc:format>image/svg+xml</dc:format><dc:type
         rdf:resource="http://purl.org/dc/dcmitype/StillImage" /></cc:Work></rdf:RDF></metadata><defs
   id="defs3797" /><sodipodi:namedview
   pagecolor="#ffffff"
   bordercolor="#666666"
   borderopacity="1"
   objecttolerance="10"
   gridtolerance="10"
   guidetolerance="10"
   inkscape:pageopacity="0"
   inkscape:pageshadow="2"
   inkscape:window-width="1920"
   inkscape:window-height="1017"
   id="namedview3795"
   showgrid="false"
   inkscape:zoom="9.5915388"
   inkscape:cx="34"
   inkscape:cy="38.828299"
   inkscape:window-x="4312"
   inkscape:window-y="2433"
   inkscape:window-maximized="1"
   inkscape:current-layer="Layer_1" />
<style
   type="text/css"
   id="style3777">
	.st0{fill:none;stroke:#00DCF0;stroke-width:0.2835;stroke-linecap:round;stroke-linejoin:round;stroke-miterlimit:10;}
	.st1{fill:none;stroke:#00DCF0;stroke-width:0.2835;stroke-miterlimit:10;}
	.st2{fill:none;stroke:#000000;stroke-width:0.2835;stroke-linecap:round;stroke-linejoin:round;stroke-miterlimit:10;}
	.st3{fill:none;stroke:#F00000;stroke-width:0.2835;stroke-linecap:round;stroke-linejoin:round;stroke-miterlimit:10;}
</style>
<rect
   x="-8.5"
   y="-8.5"
   class="st0"
   width="85"
   height="85"
   id="rect3779" />
<circle
   class="st0"
   cx="34"
   cy="34"
   r="34"
   id="circle3781" />
<path
   id="scleraBack"
   class="st0"
   d="M34,10c-13.3,0-24,10.7-24,24s10.7,24.1,24,24.1S58.1,47.3,58.1,34S47.3,10,34,10" />
<path
   id="scleraFront"
   class="st1"
   d="M34,13.5c11.3,0,20.5,9.2,20.5,20.5S45.3,54.5,34,54.5S13.5,45.3,13.5,34S22.7,13.5,34,13.5" />
<path
   id="iris"
   class="st2"
   d="M34,11.1c12.8,0,22.9,10.3,22.9,22.9S46.8,56.9,34,56.9S11.1,46.8,11.1,34S21.2,11.1,34,11.1" />
<path
   id="pupilMax"
   class="st2"
   d="m 35.111736,14.280024 c 3.199223,2.084533 1.511901,7.097503 4.290568,11.330652 2.925789,4.457282 6.024486,10.720579 4.00282,6.897846 -3.314182,-6.266728 -3.584953,2.582529 -5.713596,4.559997 -4.492345,4.173304 -0.604095,14.247058 -4.803323,16.348392 -2.741933,-1.786575 -8.188841,-4.094091 -6.77616,-7.194969 4.172352,-9.158434 -3.985025,-8.929062 -4.505617,-13.794465 -0.132611,-1.239368 3.698338,0.735771 3.56676,-0.35874 C 24.613674,27.414489 21.538417,22.254119 34,13.5"
   inkscape:connector-curvature="0"
   style="fill:none;stroke:#000000;stroke-width:0.28349999;stroke-linecap:round;stroke-linejoin:round;stroke-miterlimit:10"
   sodipodi:nodetypes="cssscsssc" />
<path
   id="pupilMin"
   class="st2"
   d="m 34,15.1 c -1.465408,2.155253 5.229454,6.748648 2.657336,7.016278 -3.505828,0.364782 0.256564,2.765787 0.895471,5.717339 0.353406,1.632627 -3.823409,3.725543 -4.340695,5.29231 -0.623622,1.888842 2.275225,3.154792 1.239141,3.791065 C 28.827119,40.370846 38.716992,48.377437 34,52.9 37.353974,46.733743 24.778177,39.204227 28.28076,33.791483 c 0.181122,-0.279898 3.255007,-0.356401 3.386164,-0.646059 0.974031,-2.151152 -5.394445,-3.932613 -5.788133,-6.397775 -0.283935,-1.777916 10.294302,-0.857525 2.255773,-5.635974 C 25.778095,19.710887 32.175719,16.865214 34,15.1"
   inkscape:connector-curvature="0"
   style="fill:none;stroke:#000000;stroke-width:0.28349999;stroke-linecap:round;stroke-linejoin:round;stroke-miterlimit:10"
   sodipodi:nodetypes="csssscssssc" />
<path
   id="lowerLidEdge"
   class="st3"
   d="M71.5,23.7c0.2,0.8,1,5.3,1.1,6.1C74.9,51,59.6,70.1,38.4,72.5C20.8,74.4,3.5,60.6-2.8,45" />
<path
   id="lowerLidClosed"
   class="st3"
   d="M 66.9,22.2 C 67.2,26.6 64.7,37.5 56.1,41.6 71.683162,43.934293 48.874738,59.952758 41.180134,59.865274 35.834982,59.804502 30.989813,59.744469 24.985171,59.451559 15.885171,59.051559 6.2,42.1 -0.1,43.8 -2.4,44.4 -2,44.7 -2.2,45.3"
   inkscape:connector-curvature="0"
   style="fill:none;stroke:#f00000;stroke-width:0.28349999;stroke-linecap:round;stroke-linejoin:round;stroke-miterlimit:10"
   sodipodi:nodetypes="ccsccc" />
<path
   id="lowerLidOpen"
   class="st3"
   d="M67,23.6c1,12.4-1.9,23-9.1,30.5c-9.8,10.2-24.3,13.8-35.4,9.7C10.1,59.2,10,49.3,0.5,46  c-1.9-0.7-2.4,0.3-2.5-0.6" />
<path
   id="upperLidEdge"
   class="st3"
   d="M-2.9,44c-1-2.9-1.3-4.8-1.7-8C-6.9,14.8,8.5-2.1,29.7-4.5c20-2.2,37.3,7.4,41.4,26.6" />
<path
   id="upperLidClosed"
   class="st3"
   d="M67,23.6c-0.2,5.5-1.7,12.3-7.8,16.8c-6.8,5-13.6,5.4-28.4,4.7C14,44.2,11.9,44.8,5.8,45.2  c-4.4,0.3-7.7-1.1-7.9-2" />
<path
   id="upperLidOpen"
   class="st3"
   d="M 66.9,22.2 C 62.5,12.8 57.7,9.3 51.8,6 75.486433,-30.360909 36.169851,9.2580011 35.56125,3.2384673 26.875319,-82.67203 27.570862,4.805252 24.1,6.8 -61.198596,-78.351349 8.3533218,12.854267 3.1437915,21.197919 1.4654056,23.886044 3.6449848,21.807768 0.13612164,25.048593 -2.9638784,27.948593 -2,39.9 -2.2,43.2"
   inkscape:connector-curvature="0"
   style="fill:none;stroke:#f00000;stroke-width:0.28349999;stroke-linecap:round;stroke-linejoin:round;stroke-miterlimit:10"
   sodipodi:nodetypes="ccscscc" />
</svg>